<?xml version="1.0" encoding="UTF-8" standalone="no"?>
<svg id="svg2" xmlns:rdf="http://www.w3.org/1999/02/22-rdf-syntax-ns#" xmlns="http://www.w3.org/2000/svg" viewBox="0 0 690 340" height="100%" width="100%" version="1.2" xmlns:cc="http://creativecommons.org/ns#" xmlns:xlink="http://www.w3.org/1999/xlink" xmlns:dc="http://purl.org/dc/elements/1.1/">
 <metadata id="metadata3421">
  <rdf:RDF>
   <cc:Work rdf:about="">
    <dc:format>image/svg+xml</dc:format>
    <dc:type rdf:resource="http://purl.org/dc/dcmitype/StillImage"/>
    <dc:title/>
   </cc:Work>
  </rdf:RDF>
 </metadata>
 <defs id="defs4">
  <linearGradient id="linearGradient4652">
   <stop id="stop4654" stop-color="#47b354" offset="0"/>
   <stop id="stop4656" stop-color="#eaf6eb" offset="1"/>
  </linearGradient>
  <linearGradient id="linearGradient3600-0-3">
   <stop id="stop3602-0-1" stop-color="#7dbaff" offset="0"/>
   <stop id="stop3604-6-0" stop-color="#f2f8ff" offset="1"/>
  </linearGradient>
  <linearGradient id="linearGradient4748" x1="-390.83" xlink:href="#linearGradient4652" gradientUnits="userSpaceOnUse" x2="-265.1" y1="56.78" y2="56.78"/>
  <linearGradient id="linearGradient4750" x1="-390.65" xlink:href="#linearGradient3600-0-3" gradientUnits="userSpaceOnUse" x2="-265.28" y1="56.78" y2="56.78"/>
  <linearGradient id="linearGradient4014" x1="-902.5" gradientUnits="userSpaceOnUse" y1="329.66" gradientTransform="matrix(0.75406723,0,0,0.75406723,764.05322,50.166346)" x2="-214.45" y2="329.66">
   <stop id="stop4638" stop-color="#fd9f6b" offset="0"/>
   <stop id="stop4640" stop-color="#f6eeea" offset="1"/>
  </linearGradient>
  <linearGradient id="linearGradient4178" x1="-390.83" xlink:href="#linearGradient3600-0-3" gradientUnits="userSpaceOnUse" x2="-265.1" y1="56.78" y2="56.78"/>
  <linearGradient id="linearGradient3255" y2="56.78" xlink:href="#linearGradient4652" gradientUnits="userSpaceOnUse" x2="-265.1" gradientTransform="matrix(0.75406723,0,0,0.75406723,319.2859,140.14142)" y1="56.78" x1="-390.83"/>
 </defs>
 <path id="path9162" d="m344.07,91.202c-74.539,0-142.02,9.4648-191.16,24.908-24.568,7.7215-44.561,16.911-58.652,27.382-14.092,10.471-22.528,22.516-22.528,35.677,0,14.183,9.756,27.042,25.921,38.104l3.9117-5.7498c-15.166-10.38-22.872-21.39-22.872-32.35,0-10.173,6.6048-20.344,19.724-30.092s32.492-18.775,56.579-26.345c48.172-15.14,115.13-24.578,189.08-24.578,73.949,0,140.89,9.438,189.06,24.578,24.086,7.5699,43.483,16.597,56.602,26.345s19.724,19.919,19.724,30.092c0,10.945-7.685,21.937-22.811,32.307l3.9117,5.7262c16.114-11.048,25.85-23.875,25.85-38.033,0-13.161-8.4362-25.206-22.528-35.677s-34.084-19.661-58.652-27.382c-49.13-15.45-116.61-24.918-191.15-24.918z" style="direction:ltr;block-progression:tb;text-indent:0;color:#000000;enable-background:accumulate;text-transform:none;text-align:start;" fill="#008000"/>
 <g id="g_bases">
  <path id="path4910" stroke-linejoin="round" style="stroke-dasharray:none;" d="m-266.1,56.78a61.864,61.864,0,1,1,-123.73,0,61.864,61.864,0,1,1,123.73,0z" stroke-dashoffset="0" transform="matrix(0.75406723,0,0,0.75406723,590.23437,183.23682)" stroke="#002f64" stroke-miterlimit="4" stroke-width="2.65228343" fill="url(#linearGradient4178)"/>
  <text id="text4098" style="writing-mode:lr-tb;text-anchor:start;text-align:start;" font-family="Sans" xml:space="preserve" font-size="11px" font-style="normal" font-stretch="normal" line-height="125%" font-variant="normal" y="216.95715" x="302.61417" font-weight="normal" fill="#002f64"><tspan id="tspan4100" y="216.95715" x="302.61417"><tspan id="tspan4102" style="writing-mode:lr-tb;text-anchor:start;text-align:start;" font-family="Sans" font-size="11px" y="216.95715" font-stretch="normal" font-variant="normal" font-style="normal" x="302.61417" font-weight="normal" line-height="125%" fill="#002f64">Base de Datos </tspan></tspan><tspan id="tspan4104" y="230.15332" x="302.51108"><tspan id="tspan4106" style="writing-mode:lr-tb;text-anchor:start;text-align:start;" font-family="Sans" font-size="11px" y="230.15332" font-stretch="normal" font-variant="normal" font-style="normal" x="302.51108" font-weight="normal" line-height="125%" fill="#002f64">Institucionales </tspan></tspan><tspan id="tspan4108" y="243.34952" x="322.74863"><tspan id="tspan4110" style="writing-mode:lr-tb;text-anchor:start;text-align:start;" font-family="Sans" font-size="11px" y="243.34952" font-stretch="normal" font-variant="normal" font-style="normal" x="322.74863" font-weight="normal" line-height="125%" fill="#002f64">de ETP</tspan></tspan></text>
  <path id="path3446" d="m-266.1,56.78a61.864,61.864,0,1,1,-123.73,0,61.864,61.864,0,1,1,123.73,0z" stroke-opacity="0" fill-opacity="0" transform="matrix(0.75406723,0,0,0.75406723,590.23437,183.23682)" stroke-miterlimit="4"/>
 </g>
 <g id="g_homologacion">
  <path id="path4912" stroke-linejoin="round" style="stroke-dasharray:none;" d="m-266.1,56.78a61.864,61.864,0,1,1,-123.73,0,61.864,61.864,0,1,1,123.73,0z" stroke-dashoffset="0" transform="matrix(0.92017293,0,0,0.92193044,490.09809,20.71322)" stroke="#002f64" stroke-miterlimit="4" stroke-width="2.17143178" fill="url(#linearGradient4750)"/>
  <text id="text4070" style="writing-mode:lr-tb;text-anchor:start;text-align:start;" line-height="125%" font-family="Sans" xml:space="preserve" transform="scale(0.99904641,1.0009545)" font-stretch="normal" font-size="12px" font-variant="normal" y="68.575768" x="152.07979" font-weight="normal" font-style="normal" fill="#002f64"><tspan id="tspan4072" y="68.575768" x="152.07979"><tspan id="tspan4074" style="writing-mode:lr-tb;text-anchor:start;text-align:start;" font-family="Sans" font-size="12px" y="68.575768" font-stretch="normal" font-variant="normal" font-style="normal" x="152.07979" font-weight="normal" line-height="125%" fill="#002f64">Procesos De </tspan></tspan><tspan id="tspan4076" y="83.657074" x="145.45813"><tspan id="tspan4078" style="writing-mode:lr-tb;text-anchor:start;text-align:start;" font-family="Sans" font-size="12px" y="83.657074" font-stretch="normal" font-variant="normal" font-style="normal" x="145.45813" font-weight="normal" line-height="125%" fill="#002f64">Homologación</tspan></tspan></text>
  <path id="path3446-6" d="m-266.1,56.78a61.864,61.864,0,1,1,-123.73,0,61.864,61.864,0,1,1,123.73,0z" stroke-opacity="0" fill-opacity="0" transform="matrix(0.92017293,0,0,0.92193044,490.09809,20.71322)" stroke-miterlimit="4"/>
 </g>
 <g id="g_registro">
  <path id="path4914" stroke-linejoin="round" style="stroke-dasharray:none;" d="m-266.1,56.78a61.864,61.864,0,1,1,-123.73,0,61.864,61.864,0,1,1,123.73,0z" stroke-dashoffset="0" transform="matrix(0.92017293,0,0,0.92193044,645.22714,20.71321)" stroke="#002f64" stroke-miterlimit="4" stroke-width="2.17143178" fill="url(#linearGradient4750)"/>
  <text id="text4080" style="text-anchor:start;text-align:start;" line-height="125%" font-family="Sans" xml:space="preserve" transform="scale(0.99904641,1.0009545)" font-stretch="normal" font-size="12px" font-variant="normal" y="54.842049" x="320.3649" font-weight="normal" font-style="normal" fill="#002f64"><tspan id="tspan4082" y="54.842049" x="320.3649" style="writing-mode:lr-tb;text-anchor:start;text-align:start;" line-height="125%"><tspan id="tspan4084" style="writing-mode:lr-tb;text-anchor:start;text-align:start;" font-family="Sans" font-size="12px" y="54.842049" font-stretch="normal" font-variant="normal" font-style="normal" x="320.3649" font-weight="normal" line-height="125%" fill="#002f64">Registro </tspan></tspan><tspan id="tspan4086" y="69.923386" x="313.08344" style="writing-mode:lr-tb;text-anchor:start;text-align:start;" line-height="125%"><tspan id="tspan4088" style="writing-mode:lr-tb;text-anchor:start;text-align:start;" font-family="Sans" font-size="12px" y="69.923386" font-stretch="normal" font-variant="normal" font-style="normal" x="313.08344" font-weight="normal" line-height="125%" fill="#002f64">Federal de </tspan></tspan><tspan id="tspan4090" y="85.004692" x="305.02432" style="writing-mode:lr-tb;text-anchor:start;text-align:start;" line-height="125%"><tspan id="tspan4092" style="writing-mode:lr-tb;text-anchor:start;text-align:start;" font-family="Sans" font-size="12px" y="85.004692" font-stretch="normal" font-variant="normal" font-style="normal" x="305.02432" font-weight="normal" line-height="125%" fill="#002f64">Instituciones </tspan></tspan><tspan id="tspan4094" y="100.08609" x="325.93793" style="writing-mode:lr-tb;text-anchor:start;text-align:start;" line-height="125%"><tspan id="tspan4096" style="writing-mode:lr-tb;text-anchor:start;text-align:start;" font-family="Sans" font-size="12px" y="100.08609" font-stretch="normal" font-variant="normal" font-style="normal" x="325.93793" font-weight="normal" line-height="125%" fill="#002f64">de ETP</tspan></tspan></text>
  <path id="path3446-6-9" d="m-266.1,56.78a61.864,61.864,0,1,1,-123.73,0,61.864,61.864,0,1,1,123.73,0z" stroke-opacity="0" fill-opacity="0" transform="matrix(0.92017293,0,0,0.92193044,645.22714,20.71321)" stroke-miterlimit="4"/>
 </g>
 <g id="g_catalogo">
  <path id="path4916" stroke-linejoin="round" style="stroke-dasharray:none;" d="m-266.1,56.78a61.864,61.864,0,1,1,-123.73,0,61.864,61.864,0,1,1,123.73,0z" stroke-dashoffset="0" transform="matrix(0.92017293,0,0,0.92193044,800.35614,20.71322)" stroke="#002f64" stroke-miterlimit="4" stroke-width="2.17143178" fill="url(#linearGradient4750)"/>
  <text id="text4112" style="writing-mode:lr-tb;text-anchor:start;text-align:start;" line-height="125%" font-family="Sans" xml:space="preserve" transform="scale(0.99904641,1.0009545)" font-stretch="normal" font-size="12px" font-variant="normal" y="70.163643" x="471.99084" font-weight="normal" font-style="normal" fill="#002f64"><tspan id="tspan4114" y="70.163643" x="471.99084"><tspan id="tspan4116" style="writing-mode:lr-tb;text-anchor:start;text-align:start;" font-family="Sans" font-size="12px" y="70.163643" font-stretch="normal" font-variant="normal" font-style="normal" x="471.99084" font-weight="normal" line-height="125%" fill="#002f64">Catálogo </tspan></tspan><tspan id="tspan4118" y="85.244987" x="472.76846"><tspan id="tspan4120" style="writing-mode:lr-tb;text-anchor:start;text-align:start;" font-family="Sans" font-size="12px" y="85.244987" font-stretch="normal" font-variant="normal" font-style="normal" x="472.76846" font-weight="normal" line-height="125%" fill="#002f64">Nacional</tspan></tspan></text>
  <path id="path3446-6-2" d="m-266.1,56.78a61.864,61.864,0,1,1,-123.73,0,61.864,61.864,0,1,1,123.73,0z" stroke-opacity="0" fill-opacity="0" transform="matrix(0.92017293,0,0,0.92193044,800.35614,20.71322)" stroke-miterlimit="4"/>
 </g>
 <g id="g_fortalecimiento">
  <path id="path4918" stroke-linejoin="round" style="stroke-dasharray:none;" d="m118.63,182.96a46.65,46.65,0,0,1,-93.301,0,46.65,46.65,0,1,1,93.301,0z" stroke-dashoffset="0" stroke="#17391b" stroke-miterlimit="4" stroke-width="2" fill="url(#linearGradient3255)"/>
  <path id="path3446-60-0" d="m118.63,182.96a46.65,46.65,0,0,1,-93.301,0,46.65,46.65,0,1,1,93.301,0z" stroke-opacity="0" fill-opacity="0" stroke-miterlimit="4"/>
  <text id="text4070-5" style="writing-mode:lr-tb;text-anchor:middle;text-align:center;" line-height="125%" font-family="Sans" transform="scale(0.99904641,1.0009545)" y="179.92473" font-stretch="normal" font-size="11.33306217px" font-variant="normal" font-style="normal" x="71.797928" font-weight="normal" xml:space="preserve" fill="#17391b"><tspan id="tspan3251" x="71.797928" y="179.92473">Fortalecimiento</tspan><tspan id="tspan3253" x="71.797928" y="194.09105">de la Gestión</tspan></text>
 </g>
 <g id="g_estudios">
  <path id="path4920" stroke-linejoin="round" style="stroke-dasharray:none;" d="m-266.1,56.78a61.864,61.864,0,1,1,-123.73,0,61.864,61.864,0,1,1,123.73,0z" stroke-dashoffset="0" transform="matrix(0.75406723,0,0,0.75406723,862.21425,140.14142)" stroke="#17391b" stroke-miterlimit="4" stroke-width="2.65228343" fill="url(#linearGradient4748)"/>
  <path id="path3446-60-0-7" d="m-266.1,56.78a61.864,61.864,0,1,1,-123.73,0,61.864,61.864,0,1,1,123.73,0z" stroke-opacity="0" fill-opacity="0" transform="matrix(0.75406723,0,0,0.75406723,862.21425,140.14142)" stroke-miterlimit="4"/>
  <text id="text4070-5-1" style="writing-mode:lr-tb;text-anchor:middle;text-align:center;" line-height="125%" font-family="Sans" transform="scale(0.99904641,1.0009545)" y="178.82628" font-stretch="normal" font-size="11.33306217px" font-variant="normal" font-style="normal" x="615.21686" font-weight="normal" xml:space="preserve" fill="#17391b"><tspan id="tspan3251-0" x="615.21686" y="178.82628">Estudios e</tspan><tspan id="tspan3300" x="615.21686" y="192.9926">Investigaciones</tspan></text>
 </g>
 <g id="g_fondo">
  <rect id="rect4922" stroke-linejoin="round" style="stroke-dasharray:none;" stroke-width="2" rx="20" ry="20" stroke-dashoffset="0" width="515.07" stroke="#642300" stroke-miterlimit="4" y="278.94" x="85.393" height="39.62" fill="url(#linearGradient4014)"/>
  <text id="text4660" font-size="51.83086777px" line-height="125%" font-family="Bitstream Vera Sans" xml:space="preserve" transform="scale(0.91597463,1.0917333)" y="279.61493" x="265.32889" font-weight="normal" font-style="normal" fill="#642300"><tspan id="tspan4662" style="writing-mode:lr-tb;text-anchor:start;text-align:start;" font-family="Sans" font-size="16px" y="279.61493" font-stretch="normal" font-variant="normal" font-style="normal" x="265.32889" font-weight="normal" line-height="125%">Fondo Nacional Para la ETP</tspan></text>
  <rect id="rect4658" stroke-opacity="0" fill-opacity="0" rx="20" ry="20" height="39.62" width="515.07" stroke-miterlimit="4" y="278.94" x="85.393"/>
 </g>
 <g id="g10044" transform="matrix(0.85184325,0,0,-0.85184325,48.670238,151.90223)" fill="#000080">
  <path id="path4772" style="direction:ltr;block-progression:tb;text-indent:0;color:#000000;enable-background:accumulate;text-transform:none;text-align:start;" d="m347.03-9.9375c-62.01,0-136.66,30.875-136.66,30.875l3.6875,8.9688s74.226-30.156,132.97-30.156c58.743,0,128.62,30.125,128.62,30.125l3.875-8.9062s-70.49-30.906-132.5-30.906z"/>
  <path id="path10050" d="m201.87,29.67,11.847-15.34,7.3589,17.95-19.206-2.6096z" style="marker-start:none;" fill-rule="evenodd"/>
  <path id="path10052" d="m487.87,29.885-19.257,2.2081,7.732-17.793,11.525,15.584z" style="marker-start:none;" fill-rule="evenodd"/>
 </g>
 <g id="g10034" transform="matrix(0.75406723,0,0,0.5759026,80.435237,158.28322)" fill="#000080">
  <path id="path5786" style="direction:ltr;block-progression:tb;text-indent:0;color:#000000;enable-background:accumulate;text-transform:none;text-align:start;" d="m342.59-33.062,0,58.5,9.7188,0,0-58.5-9.7188,0z"/>
  <path id="path10040" d="m347.46-44.245,9.7,16.781-19.4,0,9.7-16.781z" style="marker-start:none;" fill-rule="evenodd"/>
  <path id="path10042" d="m347.46,36.618-9.7-16.781,19.4,0-9.7,16.781z" style="marker-start:none;" fill-rule="evenodd"/>
 </g>
 <g id="g10054" transform="matrix(0.75406723,0,0,0.75406723,80.43517,10.233845)" fill="#000080">
  <path id="path5786-1" style="direction:ltr;block-progression:tb;text-indent:0;color:#000000;enable-background:accumulate;text-transform:none;text-align:start;" d="m232,82.625,0,9.6875,25.5,0,0-9.6875-25.5,0z"/>
  <path id="path10060" d="m220.81,87.475,16.781-9.7,0,19.4-16.781-9.7z" style="marker-start:none;" fill-rule="evenodd"/>
  <path id="path10062" d="m268.7,87.475-16.781,9.7,0-19.4,16.781,9.7z" style="marker-start:none;" fill-rule="evenodd"/>
 </g>
 <g id="g10064" transform="matrix(0.75406723,0,0,0.75406723,80.43517,10.233845)" fill="#000080">
  <path id="path5786-1-6" style="direction:ltr;block-progression:tb;text-indent:0;color:#000000;enable-background:accumulate;text-transform:none;text-align:start;" d="m437.44,82.625,0,9.6875,25.5,0,0-9.6875-25.5,0z"/>
  <path id="path10070" d="m426.24,87.475,16.781-9.7,0,19.4-16.781-9.7z" style="marker-start:none;" fill-rule="evenodd"/>
  <path id="path10072" d="m474.13,87.475-16.781,9.7,0-19.4,16.781,9.7z" style="marker-start:none;" fill-rule="evenodd"/>
 </g>
 <g id="g10108" transform="matrix(0.75406723,0,0,0.75406723,80.43517,10.233845)" fill="#008000">
  <path id="path9152" style="direction:ltr;block-progression:tb;text-indent:0;color:#000000;enable-background:accumulate;text-transform:none;text-align:start;" d="m668.66,266.88c-54.521,37.38-178.3,64.594-321.69,64.594-143.29,0-267.02-27.186-321.59-64.531l-5.1875,7.625c58.132,39.779,182.35,66.125,326.78,66.125,144.53,0,268.79-26.395,326.88-66.219l-5.1875-7.5938z"/>
  <path id="path10114" d="m663.8,275.78c-2.8762-4.1952-1.8058-9.9343,2.3894-12.81,4.1952-2.8762,9.9343-1.8058,12.81,2.3894,2.8762,4.1952,1.8058,9.9343-2.3894,12.81-4.1952,2.8762-9.9343,1.8058-12.81-2.3894z" style="marker-start:none;marker-end:none;" fill-rule="evenodd"/>
  <path id="path10116" d="m15.328,265.65c2.8725-4.1977,8.6106-5.2733,12.808-2.4008,4.1977,2.8725,5.2733,8.6106,2.4008,12.808-2.8725,4.1977-8.6106,5.2733-12.808,2.4008-4.1977-2.8725-5.2733-8.6106-2.4008-12.808z" style="marker-start:none;marker-end:none;" fill-rule="evenodd"/>
 </g>
</svg>